<?xml version="1.0" encoding="iso-8859-1"?>
<!DOCTYPE svg PUBLIC "-//W3C//DTD SVG 1.1//EN" "http://www.w3.org/Graphics/SVG/1.1/DTD/svg11.dtd">
<svg 
 version="1.1" xmlns="http://www.w3.org/2000/svg" xmlns:xlink="http://www.w3.org/1999/xlink" x="0px" y="0px" width="512px"
	 height="512px" viewBox="0 0 512 512" enable-background="new 0 0 512 512" xml:space="preserve"
><g id="e6c6b53d3c8160b22dad35a0f709df49"><g></g><path display="inline" d="M468.722,318.734c-9.282-19.056-31.961-23.663-53.891-28.118c-19.998-4.065-40.674-8.264-48.987-21.48
		c-5.769-9.172-4.704-24.84-3.58-41.427c0.499-7.383,1.019-15.016,1.019-22.811c0-45.07-2.875-96.54-24.183-136.563
		C315.133,23.323,271.691,0.5,209.982,0.5C100.142,0.5,39.65,60.991,39.65,170.832c0,62.108,16.22,121.085,48.208,175.289
		c3.53,6.66-11.616,36.628-18.893,51.029c-16.584,32.813-33.732,66.746-18.3,91.837c9.318,15.15,27.616,22.513,55.937,22.513
		l1.314-0.004c16.663-0.13,34.108-9.271,54.309-19.854c20.037-10.499,42.751-22.399,61.777-22.399l0.745,0.007
		c9.247,0.153,11.889,1.88,18.272,6.055c15.442,10.097,33.657,19.159,86.197,19.159c29.452,0,48.139-5.785,58.814-18.204
		c12.476-14.512,9.678-32.922,7.638-46.362c-1.091-7.176-2.448-16.105-0.346-19.039c2.549-3.557,7.755-5.03,16.737-7.329
		c14.964-3.833,37.576-9.621,51.622-37.713C473.22,346.746,474.866,331.347,468.722,318.734z M433.215,350.579
		c-7.093,14.182-16.534,16.601-29.605,19.947c-11.62,2.975-26.082,6.677-35.979,20.489c-10.17,14.196-7.658,30.72-5.642,43.994
		c1.107,7.303,2.488,16.392,0.209,19.043c-0.911,1.061-6.78,6.344-32.981,6.344c-46.742,0-58.282-7.545-67.555-13.606
		c-8.094-5.293-17.266-11.288-36.355-11.601l-1.304-0.014c-27.409,0-54.067,13.97-77.587,26.292
		c-14.917,7.814-30.344,15.896-38.762,15.962l-1.05,0.003c-17.012,0-25.132-3.39-26.919-6.294
		c-5.458-8.872,10.283-40.015,19.687-58.625c15.949-31.558,31.014-61.362,17.83-83.702
		c-28.854-48.891-43.483-102.044-43.483-157.979c0-91.693,44.572-136.266,136.266-136.266c99.289,0,119.233,65.174,119.233,170.332
		c0,6.641-0.479,13.688-0.941,20.505c-1.444,21.295-2.938,43.313,8.732,61.87c16.078,25.56,46.556,31.751,71.041,36.728
		c9.83,1.996,28.131,5.716,30.051,9.654C438.115,333.692,439.682,337.641,433.215,350.579z M159.285,181.882
		c-10.952,26.009-33.89,41.176-51.226,33.875c-17.339-7.301-22.519-34.306-11.57-60.316c10.952-26.009,33.89-41.176,51.229-33.875
		C165.054,128.866,170.237,155.871,159.285,181.882z M272.687,138.895c10.646,26.136,5.153,53.079-12.27,60.176
		c-17.423,7.098-40.181-8.336-50.831-34.468c-10.649-26.136-5.153-53.081,12.27-60.179
		C239.278,97.328,262.037,112.758,272.687,138.895z M209.982,264.515c0,23.517-7.625,42.583-17.033,42.583
		s-17.033-19.066-17.033-42.583c0-23.518,7.625-42.583,17.033-42.583S209.982,240.997,209.982,264.515z"></path></g></svg>