<?xml version="1.0" encoding="iso-8859-1"?>
<!DOCTYPE svg PUBLIC "-//W3C//DTD SVG 1.1//EN" "http://www.w3.org/Graphics/SVG/1.1/DTD/svg11.dtd">
<svg 
 version="1.1" xmlns="http://www.w3.org/2000/svg" xmlns:xlink="http://www.w3.org/1999/xlink" x="0px" y="0px" width="512px"
	 height="512px" viewBox="0 0 512 512" style="enable-background:new 0 0 512 512;" xml:space="preserve"
><g id="afcae5a789ccd549f9c6e2a2f81a88ee"><g></g><path style="display: inline; fill-rule: evenodd; clip-rule: evenodd;" d="M334.648,357.935c0,14.083-11.456,25.54-25.54,25.54
		c-14.083,0-25.54-11.457-25.54-25.54c0-14.084,11.457-25.54,25.54-25.54C323.192,332.395,334.648,343.851,334.648,357.935z
		 M202.691,332.395c-14.083,0-25.54,11.456-25.54,25.54c0,14.083,11.457,25.54,25.54,25.54c14.084,0,25.54-11.457,25.54-25.54
		C228.231,343.851,216.775,332.395,202.691,332.395z M96.275,332.395c-14.084,0-25.54,11.456-25.54,25.54
		c0,14.083,11.456,25.54,25.54,25.54c14.083,0,25.54-11.457,25.54-25.54C121.815,343.851,110.358,332.395,96.275,332.395z
		 M415.525,332.395c-14.083,0-25.54,11.456-25.54,25.54c0,14.083,11.457,25.54,25.54,25.54c14.084,0,25.54-11.457,25.54-25.54
		C441.065,343.851,429.609,332.395,415.525,332.395z M508.865,315.517l-41.952,84.835c-6.019,12.18-20.526,22.14-32.232,22.14
		H77.319c-11.706,0-26.213-9.96-32.233-22.14L3.135,315.517c-6.019-12.18-1.372-22.144,10.334-22.144h50.88v-19.159
		c0-11.706,9.578-21.284,21.283-21.284h15.231l9.154-64.064c1.654-11.587,12.587-21.069,24.293-21.069h139.863
		c5.188,0,10.172,1.935,14.316,5.018l143.659-64.268c0.794-7.283,5.229-13.999,12.366-17.191c10.688-4.78,23.342,0.05,28.122,10.735
		l8.688,19.429c4.78,10.686-0.05,23.339-10.737,28.12c-7.137,3.192-15.102,2.024-21.059-2.236l-147.554,66.01l5.645,39.518h118.547
		c11.706,0,21.284,9.578,21.284,21.284v19.159h51.08C510.236,293.373,514.884,303.337,508.865,315.517z M134.585,357.935
		c0-21.126-17.185-38.311-38.31-38.311s-38.31,17.185-38.31,38.311c0,21.125,17.185,38.31,38.31,38.31
		S134.585,379.06,134.585,357.935z M241.002,357.935c0-21.126-17.185-38.311-38.311-38.311c-21.125,0-38.31,17.185-38.31,38.311
		c0,21.125,17.185,38.31,38.31,38.31C223.817,396.244,241.002,379.06,241.002,357.935z M347.419,357.935
		c0-21.126-17.185-38.311-38.311-38.311c-21.125,0-38.31,17.185-38.31,38.311c0,21.125,17.185,38.31,38.31,38.31
		C330.234,396.244,347.419,379.06,347.419,357.935z M453.836,357.935c0-21.126-17.185-38.311-38.311-38.311
		c-21.125,0-38.31,17.185-38.31,38.311c0,21.125,17.185,38.31,38.31,38.31C436.651,396.244,453.836,379.06,453.836,357.935z"></path></g></svg>