<?xml version="1.0" encoding="iso-8859-1"?>
<!DOCTYPE svg PUBLIC "-//W3C//DTD SVG 1.1//EN" "http://www.w3.org/Graphics/SVG/1.1/DTD/svg11.dtd">
<svg 
 version="1.1" xmlns="http://www.w3.org/2000/svg" xmlns:xlink="http://www.w3.org/1999/xlink" x="0px" y="0px" width="512px"
	 height="512px" viewBox="0 0 512 512" style="enable-background:new 0 0 512 512;" xml:space="preserve"
><g id="afcae5a789ccd549f9c6e2a2f8146acf"><g></g><path style="display: inline;" d="M438.193,189.917c-12.012-77.082-68.246-138.699-140.809-155.795
		c-0.271-7.252-3.514-33.622-42.9-33.622c-41.407,0-42.868,29.151-42.924,34.584c-70.57,18.418-124.908,79.209-136.696,154.833
		c-63.598,54.557-63.616,132.321-63.616,146.018h490.56C501.809,322.238,501.793,244.475,438.193,189.917z M143.945,95.254
		c30.552-30.646,70.538-47.523,112.583-47.523c42.053,0,82.04,16.877,112.592,47.521c21.318,21.384,36.492,47.854,44.508,76.912
		c-35.834-21.788-86.207-36.76-157.1-36.76s-121.263,14.971-157.096,36.758C107.449,143.107,122.623,116.637,143.945,95.254z
		 M93.009,295.056c-11.29,0-20.44-9.15-20.44-20.44s9.15-20.44,20.44-20.44c11.29,0,20.44,9.15,20.44,20.44
		S104.299,295.056,93.009,295.056z M174.769,295.056c-11.29,0-20.44-9.15-20.44-20.44s9.15-20.44,20.44-20.44
		s20.44,9.15,20.44,20.44S186.059,295.056,174.769,295.056z M256.529,295.056c-11.29,0-20.439-9.15-20.439-20.44
		s9.149-20.44,20.439-20.44c11.29,0,20.44,9.15,20.44,20.44S267.818,295.056,256.529,295.056z M338.289,295.056
		c-11.289,0-20.439-9.15-20.439-20.44s9.15-20.44,20.439-20.44s20.439,9.15,20.439,20.44S349.578,295.056,338.289,295.056z
		 M420.049,295.056c-11.289,0-20.439-9.15-20.439-20.44s9.15-20.44,20.439-20.44c11.291,0,20.439,9.15,20.439,20.44
		S431.34,295.056,420.049,295.056z M429.348,403.235l72.461,93.813L487.357,511.5l-115.441-90.411
		c-21.436,3.956-48.031,6.862-81.039,8.052L277.523,511.5h-20.436l-14.016-81.855c-43.359-0.567-76.886-3.865-102.787-8.711
		L24.643,511.5l-14.452-14.452l72.76-94.199c-30.818-16.168-30.822-34.317-30.822-38.018H460.93
		C460.93,368.56,460.912,386.968,429.348,403.235z"></path></g></svg>