<?xml version="1.0" encoding="iso-8859-1"?>
<!DOCTYPE svg PUBLIC "-//W3C//DTD SVG 1.1//EN" "http://www.w3.org/Graphics/SVG/1.1/DTD/svg11.dtd">
<svg 
 version="1.1" xmlns="http://www.w3.org/2000/svg" xmlns:xlink="http://www.w3.org/1999/xlink" x="0px" y="0px" width="512px"
	 height="512px" viewBox="0 0 512 512" style="enable-background:new 0 0 512 512;" xml:space="preserve"
><g id="afcae5a789ccd549f9c6e2a2f81af219"><g></g><path style="display: inline; fill-rule: evenodd; clip-rule: evenodd;" d="M221.92,402.554c4.302,3.965,6.519,9.08,6.519,9.08
		l-26.008,15.604c0,0-11.892,4.003-22.563-0.448c-19.091-7.96-42.118-26.531-42.118-26.531s-20.08,22.139-41.811,42.06
		c-21.167,19.402-44.003,36.601-44.003,36.601s1.051,3.268,3.679,5.468c3.305,2.773,8.346,4.608,8.346,4.608
		s-14.05,17.904-28.699,21.732c-11.21,2.931-22.811-3.23-26.93-5.759l-0.282,0.277c0,0-0.199-0.286-0.515-0.78
		c-0.499-0.319-0.781-0.519-0.781-0.519l0.278-0.278c-2.529-4.119-8.69-15.724-5.759-26.931
		c3.828-14.647,21.731-28.698,21.731-28.698s1.835,5.04,4.609,8.346c2.201,2.628,5.472,3.679,5.472,3.679
		s17.189-22.837,36.596-44.004c19.921-21.731,42.06-41.811,42.06-41.811S93.17,351.222,85.21,332.131
		c-4.451-10.671-0.448-22.566-0.448-22.566l15.603-26.004c0,0,5.116,2.213,9.085,6.519c3.654,3.97,6.195,10.061,6.195,10.061
		s-2.948,12.635,1.046,21.565c3.621,8.093,14.229,12.564,14.229,12.564l10.077,1.623c0,0,228.361-236.383,319.274-316.689
		C489.892-6.961,508.733,1.97,508.733,1.97s10.223,20.137-15.935,49.758c-80.309,90.909-316.692,319.27-316.692,319.27l1.619,10.077
		c0,0,4.477,10.608,12.564,14.233c8.936,3.994,21.574,1.046,21.574,1.046S217.951,398.896,221.92,402.554z M203.692,241.119
		c11.763-11.987,24.381-24.813,37.535-38.12C173.736,134.897,96.251,58.135,51.729,18.805C22.108-7.355,1.971,2.867,1.971,2.867
		S-6.96,21.711,19.202,51.33C58.592,95.918,135.517,173.563,203.692,241.119z M510.727,476.339
		c-3.828-14.648-21.731-28.698-21.731-28.698s-1.835,5.04-4.608,8.346c-2.201,2.628-5.469,3.679-5.469,3.679
		s-17.197-22.837-36.6-44.004c-19.922-21.731-42.061-41.811-42.061-41.811s18.572-23.027,26.531-42.118
		c4.451-10.671,0.449-22.563,0.449-22.563l-15.604-26.008c0,0-5.115,2.217-9.081,6.519c-3.657,3.97-6.198,10.057-6.198,10.057
		s2.947,12.639-1.047,21.573c-3.625,8.088-14.233,12.564-14.233,12.564l-10.076,1.619c0,0-25.361-26.249-62.521-64.207
		c-12.934,12.78-25.398,25.045-37.077,36.513c38.111,37.311,64.493,62.804,64.493,62.804l-1.624,10.077
		c0,0-4.472,10.608-12.563,14.229c-8.932,3.995-21.565,1.047-21.565,1.047s-6.092,2.541-10.061,6.194
		c-4.306,3.97-6.519,9.085-6.519,9.085l26.004,15.604c0,0,11.896,4.002,22.566-0.448c19.091-7.96,42.118-26.532,42.118-26.532
		s20.079,22.139,41.811,42.061c21.167,19.406,44.003,36.596,44.003,36.596s-1.05,3.271-3.679,5.473
		c-3.305,2.773-8.346,4.608-8.346,4.608s14.051,17.903,28.699,21.732c11.206,2.931,22.812-3.23,26.93-5.76l0.278,0.278
		c0,0,0.199-0.282,0.52-0.78c0.494-0.315,0.78-0.515,0.78-0.515l-0.278-0.282C507.496,499.15,513.658,487.55,510.727,476.339z"></path></g></svg>