<?xml version="1.0" encoding="iso-8859-1"?>
<!DOCTYPE svg PUBLIC "-//W3C//DTD SVG 1.1//EN" "http://www.w3.org/Graphics/SVG/1.1/DTD/svg11.dtd">
<svg 
 version="1.1" xmlns="http://www.w3.org/2000/svg" xmlns:xlink="http://www.w3.org/1999/xlink" x="0px" y="0px" width="512px"
	 height="512px" viewBox="0 0 512 512" style="enable-background:new 0 0 512 512;" xml:space="preserve"
><g id="afcae5a789ccd549f9c6e2a2f81bbd40"><g></g><path style="display: inline; fill-rule: evenodd; clip-rule: evenodd;" d="M511.5,0.5c0,0-14.172,1.563-31.543,13.436
		c-25.213,17.237-56.609,46.829-56.609,46.829s-7.045-2.079-17.974,5.922c-23.142,16.95-60.224,51.35-60.224,51.35
		s-15.503,5.223-31.33,14.842c-22.364,13.586-47.361,32.973-47.361,32.973l-193.742-19.42l-38.35,32.37l12.451,1.497
		l112.563,109.569l-44.829,43.831l-95.126-2.495L0.5,355.114l41.336,40.338l3.988-4.978l14.443,11.456l36.853-35.862l6.479,6.479
		l-23.413,23.404l-12.95,30.881l9.465,8.467l8.467,9.465l30.881-12.958l23.404-23.404l6.479,6.479l-35.863,36.853l11.457,14.447
		l-4.978,3.983l40.338,41.336l23.911-18.93l-2.495-95.122l43.831-44.829l109.569,112.563l1.497,12.45l32.37-38.35l-19.421-193.746
		c0,0,19.387-24.989,32.973-47.357c9.619-15.827,14.842-31.33,14.842-31.33s34.399-37.086,51.35-60.224
		c8.001-10.929,5.922-17.973,5.922-17.973s29.592-31.397,46.829-56.614C509.937,14.672,511.5,0.5,511.5,0.5z M365.951,159.248
		c-9.311,5.074-22.339,9.141-22.339,9.141s4.063-13.024,9.14-22.34c3.543-6.487,8.242-10.729,8.242-10.729s0.217,2.645,1.189,4.949
		c1.306,3.09,3.473,6.071,3.473,6.071s2.985,2.171,6.075,3.477c2.304,0.978,4.949,1.189,4.949,1.189
		S372.438,155.705,365.951,159.248z M421.892,101.644c-1.892,7.003-7.065,15.453-7.065,15.453L382.61,148.46
		c0,0-3.942-0.574-6.911-1.688c-3.727-1.397-6.654-3.393-6.654-3.393l-0.424-0.424c0,0-1.996-2.928-3.394-6.654
		c-1.114-2.969-1.692-6.911-1.692-6.911l31.368-32.216c0,0,8.45-5.177,15.453-7.065c6.313-1.705,11.253-0.142,11.253-0.142
		l0.424,0.424C422.033,90.391,423.597,95.331,421.892,101.644z"></path></g></svg>