<?xml version="1.0" encoding="iso-8859-1"?>
<!DOCTYPE svg PUBLIC "-//W3C//DTD SVG 1.1//EN" "http://www.w3.org/Graphics/SVG/1.1/DTD/svg11.dtd">
<svg 
 version="1.1" xmlns="http://www.w3.org/2000/svg" xmlns:xlink="http://www.w3.org/1999/xlink" x="0px" y="0px" width="512px"
	 height="512px" viewBox="0 0 512 512" style="enable-background:new 0 0 512 512;" xml:space="preserve"
><g id="afcae5a789ccd549f9c6e2a2f81a1ac4"><g></g><path style="display: inline;" d="M406.165,104.462L264.089,6.102L256,0.499l-8.089,5.603l-142.081,98.36l-6.116,4.237v359.045
		l6.14,4.235c36.393,25.114,91.116,39.521,150.146,39.521s113.754-14.407,150.146-39.521l6.14-4.235V108.699L406.165,104.462z
		 M113.923,116.141L256,17.782l142.076,98.359v38.982L256,56.762l-142.077,98.361V116.141z M398.076,231.385v38.979L256,172.005
		l-142.077,98.359v-38.979L256,133.02L398.076,231.385z M398.076,213.534L256,115.172l-142.077,98.361v-38.982L256,76.19
		l142.076,98.361V213.534z M398.076,460.284C365.225,482.961,314.26,497.292,256,497.292s-109.225-14.331-142.077-37.008v-41.921
		c32.853,22.676,83.817,37.003,142.077,37.003s109.225-14.327,142.076-37.003V460.284z M397.995,401.152
		c-32.854,22.644-83.782,36.952-141.995,36.952c-58.199,0-109.117-14.302-141.973-36.937l-0.104-0.072V360.76
		c9.325,5.645,19.637,10.664,30.757,14.999c30.485,12.845,68.972,20.421,111.32,20.421c42.347,0,80.83-7.575,111.314-20.418
		c11.122-4.336,21.436-9.356,30.762-15.002v40.336L397.995,401.152z M390.007,347.478c-8.238,5.688-17.636,10.739-27.955,15.111
		c-29.599,11.544-66.109,18.282-106.052,18.282c-39.94,0-76.449-6.737-106.048-18.28c-10.321-4.373-19.72-9.425-27.959-15.113
		l-8.07-5.568v-39.971c32.853,22.676,83.817,37.003,142.077,37.003s109.225-14.327,142.076-37.003v39.971L390.007,347.478z
		 M390.007,290.244c-31.757,21.92-80.601,34.492-134.007,34.492s-102.25-12.572-134.007-34.492l-5.923-4.088l5.938-4.112
		L256,189.284l133.991,92.76l5.938,4.112L390.007,290.244z M315.188,242.297l-29.594,29.155l6.986,41.166L256,293.182l-36.58,19.437
		l6.986-41.166l-29.594-29.155l40.899-6.006L256,198.834l18.288,37.458L315.188,242.297z"></path></g></svg>